REM MD5 533b1c6f4d7418d733173a4d4c518800
FILE "Duke Nukem (Europe).bin" BINARY
  TRACK 01 MODE2/2352
    INDEX 01 00:00:00
  TRACK 02 AUDIO
    INDEX 00 52:37:13
    INDEX 01 52:39:13
  TRACK 03 AUDIO
    INDEX 00 55:43:12
    INDEX 01 55:45:12
  TRACK 04 AUDIO
    INDEX 00 59:45:12
    INDEX 01 59:47:12
REM LEADOUT 66:09:21
